<svg height="448pt" viewBox="-5 0 448 448.69536" width="448pt" xmlns="http://www.w3.org/2000/svg"><path d="m264.648438 275.800781v135.097657l-254.300782.5c-.199218-95.699219 71.101563-166 159.199219-166.097657 35.203125-.199219 68.703125 11 95.101563 30.5zm0 0" fill="#e48e66"/><path d="m169.648438 10c52.851562 0 95.699218 42.847656 95.699218 95.699219 0 52.855469-42.847656 95.699219-95.699218 95.699219-52.855469 0-95.699219-42.84375-95.699219-95.699219 0-52.851563 42.84375-95.699219 95.699219-95.699219zm0 0" fill="#f8ec7d"/><path d="m169.648438 245.199219h-.199219c-88 .199219-159.300781 70.5-159.101563 166.101562l159.300782-.300781zm0 0" fill="#d18162"/><path d="m169.648438 10c-52.855469 0-95.699219 42.847656-95.699219 95.699219 0 52.855469 42.84375 95.699219 95.699219 95.699219zm0 0" fill="#e2d574"/><path d="m427.648438 265.300781v19.800781c-.019532 12.417969-10.082032 22.480469-22.5 22.5h-25.101563v-42.300781c.007813-11.707031 9.496094-21.195312 21.203125-21.199219h14.296875c11.601563 0 12.101563 9.5 12.101563 21.199219zm0 0" fill="#e48e66"/><path d="m264.648438 410.898438v-145.597657c.003906-11.707031 9.492187-21.195312 21.199218-21.199219h115.402344c-11.707031.003907-21.195312 9.492188-21.203125 21.199219v170.5c-.015625 1.03125-.617187 1.964844-1.546875 2.410157-.933594.445312-2.039062.324218-2.851562-.3125l-50.800782-50.199219-55.800781 50.199219c-.8125.636718-1.917969.757812-2.847656.3125-.933594-.445313-1.535157-1.378907-1.550781-2.410157zm0 0" fill="#f8ec7d"/><g fill="#63316d"><path d="m169.648438 211.398438c58.375 0 105.699218-47.320313 105.699218-105.699219 0-58.375-47.324218-105.699219-105.699218-105.699219s-105.699219 47.324219-105.699219 105.699219c.054687 58.355469 47.34375 105.644531 105.699219 105.699219zm0-191.398438c47.332031 0 85.699218 38.371094 85.699218 85.699219 0 47.332031-38.367187 85.699219-85.699218 85.699219-47.332032 0-85.699219-38.367188-85.699219-85.699219.054687-47.308594 38.390625-85.644531 85.699219-85.699219zm0 0"/><path d="m415.449219 234.101562h-129.601563c-14.375.011719-26.882812 9.835938-30.300781 23.796876-26.101563-14.898438-55.644531-22.722657-85.699219-22.699219h-.300781c-45.796875.101562-88.296875 17.902343-119.796875 50.300781-32 32.699219-49.5 77.398438-49.402344 125.898438.019532 2.652343 1.058594 5.195312 2.902344 7.101562 1.878906 1.882812 4.4375 2.925781 7.097656 2.898438l244.300782-.5v15c.019531 4.867187 2.804687 9.296874 7.183593 11.421874 4.375 2.125 9.582031 1.574219 13.417969-1.421874.199219-.097657.296875-.296876.5-.398438l48.796875-43.898438 44.101563 43.597657c.300781.300781.601562.5.898437.800781 3.824219 2.992188 9.015625 3.539062 13.378906 1.410156 4.363281-2.125 7.128907-6.558594 7.121094-11.410156v-118.5h15.101563c17.933593-.035156 32.464843-14.566406 32.5-32.5v-19.800781c0-7-.199219-13.300781-2.5-18.800781-3.199219-7.898438-10.199219-12.296876-19.699219-12.296876zm-394.800781 167.199219c2.101562-39.300781 17.398437-75.199219 43.398437-101.902343 27.703125-28.5 65.203125-44.199219 105.5-44.199219h.300781c30.601563 0 60.5 9.101562 84.800782 25.699219v119.902343zm349.398437-136v153.097657l-38.199219-37.699219c-3.757812-3.734375-9.78125-3.863281-13.699218-.300781l-43.5 39.101562v-154.199219c-.003907-2.972656 1.171874-5.824219 3.273437-7.925781s4.953125-3.28125 7.925781-3.273438h86.199219c-1.34375 3.578126-2.019531 7.375-2 11.199219zm47.601563 19.699219c0 6.902344-5.597657 12.5-12.5 12.5h-15.101563v-32.300781c-.003906-2.972657 1.175781-5.824219 3.277344-7.925781 2.101562-2.101563 4.953125-3.277344 7.925781-3.273438h14.296875c.4375-.03125.875.003906 1.300781.101562.902344 2.097657.902344 8.597657.902344 11.097657v19.800781zm0 0"/></g></svg>